<svg width="1303" height="243" viewBox="0 0 1303 243" fill="none" xmlns="http://www.w3.org/2000/svg">
<rect width="1303" height="243" fill="#C7DE3C"/>
<path fill-rule="evenodd" clip-rule="evenodd" d="M0 243H348.514L387.585 33.5085L0 98.6895V243Z" fill="#0B2641"/>
<path fill-rule="evenodd" clip-rule="evenodd" d="M0 243H272.57L296.585 114.234L0 164.111V243Z" fill="#C7DE3C"/>
<path fill-rule="evenodd" clip-rule="evenodd" d="M0 243H205.628L216.585 184.251L0 220.674V243Z" fill="#2D80B6"/>
<path d="M755.32 114.537L754.187 127H716.798L717.725 107.327L716.798 60.565H733.793L732.866 105.679L733.175 113.301H754.29L755.32 114.537ZM794.708 115.361L793.781 127H761.748L762.469 111.653L761.748 74.676H777.507L776.58 110.108L776.786 114.331H793.884L794.708 115.361ZM840.6 114.537L841.527 115.567L840.497 127H802.696L803.417 111.653L802.696 74.676H841.012L841.939 75.809L840.909 87.139L827.313 86.624H818.146L817.94 94.658H826.798L835.759 94.349L836.583 95.482L835.656 106.915L825.768 106.606L817.631 106.709L817.528 110.108L817.734 115.052H826.386L840.6 114.537ZM876.042 73.852C882.154 73.852 887.578 74.676 892.316 76.324L888.608 90.229H887.372C884.557 88.787 882.085 87.757 879.956 87.139C877.896 86.521 875.63 86.212 873.158 86.212C870.274 86.212 868.008 86.6583 866.36 87.551C864.781 88.375 863.614 89.8857 862.858 92.083C862.103 94.2117 861.725 97.2673 861.725 101.25C861.725 105.233 862.103 108.288 862.858 110.417C863.614 112.477 864.85 113.953 866.566 114.846C868.283 115.67 870.686 116.082 873.776 116.082C875.218 116.082 876.695 115.842 878.205 115.361V112.889L877.999 104.134L892.213 103.207L891.904 110.314V124.425C885.106 126.76 878.617 127.927 872.437 127.927C863.579 127.927 856.884 125.695 852.352 121.232C847.82 116.769 845.554 110.383 845.554 102.074C845.554 92.8727 848.164 85.8687 853.382 81.062C858.67 76.2553 866.223 73.852 876.042 73.852ZM947.924 127H932.268L930.826 118.657L930.62 117.833L921.041 117.627L912.801 117.833L911.256 127H896.115L913.522 74.676H932.062L947.924 127ZM927.633 106.297L922.998 88.581H922.071L916.406 106.297L921.968 106.4L927.633 106.297ZM980.322 108.975L981.043 127H964.357L965.181 108.975L965.078 105.37L943.86 60.565H961.473L963.018 65.509L972.7 88.684H973.833L984.751 66.127L986.811 60.565H1003.91L980.528 104.958L980.322 108.975ZM1050.02 127H1034.36L1032.92 118.657L1032.72 117.833L1023.14 117.627L1014.9 117.833L1013.35 127H998.21L1015.62 74.676H1034.16L1050.02 127ZM1029.73 106.297L1025.09 88.581H1024.17L1018.5 106.297L1024.06 106.4L1029.73 106.297Z" fill="#0B2641"/>
<path d="M663.227 184H658.988V167.539H653.561V164.012H668.654V167.539H663.227V184ZM685.43 168.715V184H682.23L681.67 182.045H681.451C681.123 182.564 680.713 182.988 680.221 183.316C679.729 183.645 679.186 183.886 678.594 184.041C678.001 184.196 677.386 184.273 676.748 184.273C675.654 184.273 674.702 184.082 673.891 183.699C673.079 183.307 672.446 182.701 671.99 181.881C671.544 181.061 671.32 179.994 671.32 178.682V168.715H675.49V177.643C675.49 178.736 675.686 179.561 676.078 180.117C676.47 180.673 677.094 180.951 677.951 180.951C678.799 180.951 679.464 180.76 679.947 180.377C680.43 179.985 680.768 179.415 680.959 178.668C681.16 177.911 681.26 176.991 681.26 175.906V168.715H685.43ZM703.381 168.428C704.794 168.428 706.01 168.701 707.031 169.248C708.052 169.786 708.84 170.57 709.396 171.6C709.952 172.63 710.23 173.887 710.23 175.373V177.396H700.373C700.419 178.572 700.77 179.497 701.426 180.172C702.091 180.837 703.012 181.17 704.188 181.17C705.163 181.17 706.056 181.07 706.867 180.869C707.678 180.669 708.512 180.368 709.369 179.967V183.193C708.613 183.567 707.82 183.84 706.99 184.014C706.17 184.187 705.172 184.273 703.996 184.273C702.465 184.273 701.107 183.991 699.922 183.426C698.746 182.861 697.821 181.999 697.146 180.842C696.481 179.684 696.148 178.226 696.148 176.467C696.148 174.68 696.449 173.195 697.051 172.01C697.661 170.816 698.509 169.923 699.594 169.33C700.678 168.729 701.941 168.428 703.381 168.428ZM703.408 171.395C702.597 171.395 701.923 171.654 701.385 172.174C700.856 172.693 700.551 173.509 700.469 174.621H706.32C706.311 174.001 706.197 173.45 705.979 172.967C705.769 172.484 705.45 172.101 705.021 171.818C704.602 171.536 704.064 171.395 703.408 171.395ZM722.303 168.428C723.934 168.428 725.247 168.874 726.24 169.768C727.234 170.652 727.73 172.074 727.73 174.033V184H723.561V175.072C723.561 173.979 723.36 173.154 722.959 172.598C722.567 172.042 721.947 171.764 721.1 171.764C719.824 171.764 718.953 172.197 718.488 173.062C718.023 173.928 717.791 175.177 717.791 176.809V184H713.621V168.715H716.807L717.367 170.67H717.6C717.928 170.141 718.333 169.713 718.816 169.385C719.309 169.057 719.851 168.815 720.443 168.66C721.045 168.505 721.665 168.428 722.303 168.428ZM738.463 180.951C738.919 180.951 739.361 180.906 739.789 180.814C740.227 180.723 740.66 180.609 741.088 180.473V183.576C740.641 183.777 740.085 183.941 739.42 184.068C738.764 184.205 738.044 184.273 737.26 184.273C736.348 184.273 735.528 184.128 734.799 183.836C734.079 183.535 733.509 183.02 733.09 182.291C732.68 181.553 732.475 180.527 732.475 179.215V171.846H730.479V170.082L732.775 168.688L733.979 165.461H736.645V168.715H740.924V171.846H736.645V179.215C736.645 179.798 736.809 180.236 737.137 180.527C737.474 180.81 737.916 180.951 738.463 180.951ZM752.723 168.428C752.932 168.428 753.174 168.441 753.447 168.469C753.73 168.487 753.958 168.514 754.131 168.551L753.816 172.461C753.68 172.415 753.484 172.383 753.229 172.365C752.982 172.338 752.768 172.324 752.586 172.324C752.048 172.324 751.524 172.393 751.014 172.529C750.512 172.666 750.061 172.889 749.66 173.199C749.259 173.5 748.94 173.901 748.703 174.402C748.475 174.895 748.361 175.501 748.361 176.221V184H744.191V168.715H747.35L747.965 171.285H748.17C748.471 170.766 748.844 170.292 749.291 169.863C749.747 169.426 750.262 169.079 750.836 168.824C751.419 168.56 752.048 168.428 752.723 168.428ZM763.209 168.428C764.622 168.428 765.839 168.701 766.859 169.248C767.88 169.786 768.669 170.57 769.225 171.6C769.781 172.63 770.059 173.887 770.059 175.373V177.396H760.201C760.247 178.572 760.598 179.497 761.254 180.172C761.919 180.837 762.84 181.17 764.016 181.17C764.991 181.17 765.884 181.07 766.695 180.869C767.507 180.669 768.34 180.368 769.197 179.967V183.193C768.441 183.567 767.648 183.84 766.818 184.014C765.998 184.187 765 184.273 763.824 184.273C762.293 184.273 760.935 183.991 759.75 183.426C758.574 182.861 757.649 181.999 756.975 180.842C756.309 179.684 755.977 178.226 755.977 176.467C755.977 174.68 756.277 173.195 756.879 172.01C757.49 170.816 758.337 169.923 759.422 169.33C760.507 168.729 761.769 168.428 763.209 168.428ZM763.236 171.395C762.425 171.395 761.751 171.654 761.213 172.174C760.684 172.693 760.379 173.509 760.297 174.621H766.148C766.139 174.001 766.025 173.45 765.807 172.967C765.597 172.484 765.278 172.101 764.85 171.818C764.43 171.536 763.893 171.395 763.236 171.395ZM777.92 190.727C775.787 190.727 774.156 190.353 773.025 189.605C771.904 188.867 771.344 187.828 771.344 186.488C771.344 185.568 771.631 184.798 772.205 184.178C772.779 183.558 773.622 183.116 774.734 182.852C774.306 182.669 773.932 182.373 773.613 181.963C773.294 181.544 773.135 181.102 773.135 180.637C773.135 180.053 773.303 179.57 773.641 179.188C773.978 178.796 774.465 178.413 775.104 178.039C774.301 177.693 773.663 177.137 773.189 176.371C772.725 175.605 772.492 174.703 772.492 173.664C772.492 172.552 772.734 171.609 773.217 170.834C773.709 170.05 774.42 169.453 775.35 169.043C776.288 168.633 777.428 168.428 778.768 168.428C779.05 168.428 779.378 168.446 779.752 168.482C780.126 168.519 780.467 168.56 780.777 168.605C781.096 168.651 781.311 168.688 781.42 168.715H786.752V170.834L784.359 171.449C784.578 171.786 784.742 172.146 784.852 172.529C784.961 172.912 785.016 173.318 785.016 173.746C785.016 175.387 784.441 176.667 783.293 177.588C782.154 178.499 780.568 178.955 778.535 178.955C778.052 178.928 777.596 178.891 777.168 178.846C776.958 179.01 776.799 179.183 776.689 179.365C776.58 179.548 776.525 179.739 776.525 179.939C776.525 180.14 776.607 180.309 776.771 180.445C776.945 180.573 777.2 180.673 777.537 180.746C777.883 180.81 778.312 180.842 778.822 180.842H781.42C783.097 180.842 784.373 181.202 785.248 181.922C786.132 182.642 786.574 183.699 786.574 185.094C786.574 186.88 785.827 188.266 784.332 189.25C782.846 190.234 780.709 190.727 777.92 190.727ZM778.098 188.006C779.091 188.006 779.943 187.91 780.654 187.719C781.374 187.536 781.926 187.272 782.309 186.926C782.691 186.589 782.883 186.183 782.883 185.709C782.883 185.326 782.769 185.021 782.541 184.793C782.322 184.574 781.985 184.419 781.529 184.328C781.083 184.237 780.508 184.191 779.807 184.191H777.646C777.136 184.191 776.676 184.273 776.266 184.438C775.865 184.602 775.546 184.829 775.309 185.121C775.072 185.422 774.953 185.768 774.953 186.16C774.953 186.734 775.227 187.186 775.773 187.514C776.329 187.842 777.104 188.006 778.098 188.006ZM778.768 176.412C779.551 176.412 780.126 176.171 780.49 175.688C780.855 175.204 781.037 174.548 781.037 173.719C781.037 172.798 780.846 172.11 780.463 171.654C780.089 171.189 779.524 170.957 778.768 170.957C778.002 170.957 777.428 171.189 777.045 171.654C776.662 172.11 776.471 172.798 776.471 173.719C776.471 174.548 776.658 175.204 777.031 175.688C777.414 176.171 777.993 176.412 778.768 176.412ZM795.543 168.4C797.594 168.4 799.166 168.847 800.26 169.74C801.354 170.633 801.9 171.992 801.9 173.814V184H798.988L798.182 181.922H798.072C797.635 182.469 797.188 182.915 796.732 183.262C796.277 183.608 795.753 183.863 795.16 184.027C794.568 184.191 793.848 184.273 793 184.273C792.098 184.273 791.286 184.1 790.566 183.754C789.855 183.408 789.295 182.879 788.885 182.168C788.475 181.448 788.27 180.536 788.27 179.434C788.27 177.811 788.839 176.617 789.979 175.852C791.118 175.077 792.827 174.648 795.105 174.566L797.758 174.484V173.814C797.758 173.012 797.548 172.424 797.129 172.051C796.71 171.677 796.126 171.49 795.379 171.49C794.641 171.49 793.916 171.595 793.205 171.805C792.494 172.014 791.783 172.279 791.072 172.598L789.691 169.781C790.503 169.353 791.41 169.016 792.412 168.77C793.424 168.523 794.467 168.4 795.543 168.4ZM797.758 176.918L796.145 176.973C794.796 177.009 793.857 177.251 793.328 177.697C792.809 178.144 792.549 178.732 792.549 179.461C792.549 180.099 792.736 180.555 793.109 180.828C793.483 181.092 793.971 181.225 794.572 181.225C795.465 181.225 796.217 180.96 796.828 180.432C797.448 179.903 797.758 179.151 797.758 178.176V176.918ZM810.09 180.746L810.295 181.061C810.131 181.717 809.917 182.423 809.652 183.18C809.397 183.936 809.115 184.693 808.805 185.449C808.504 186.206 808.199 186.926 807.889 187.609H804.881C805.063 186.871 805.241 186.096 805.414 185.285C805.587 184.474 805.747 183.676 805.893 182.893C806.048 182.109 806.171 181.393 806.262 180.746H810.09ZM827.768 168.428C829.18 168.428 830.397 168.701 831.418 169.248C832.439 169.786 833.227 170.57 833.783 171.6C834.339 172.63 834.617 173.887 834.617 175.373V177.396H824.76C824.805 178.572 825.156 179.497 825.812 180.172C826.478 180.837 827.398 181.17 828.574 181.17C829.549 181.17 830.443 181.07 831.254 180.869C832.065 180.669 832.899 180.368 833.756 179.967V183.193C832.999 183.567 832.206 183.84 831.377 184.014C830.557 184.187 829.559 184.273 828.383 184.273C826.852 184.273 825.493 183.991 824.309 183.426C823.133 182.861 822.208 181.999 821.533 180.842C820.868 179.684 820.535 178.226 820.535 176.467C820.535 174.68 820.836 173.195 821.438 172.01C822.048 170.816 822.896 169.923 823.98 169.33C825.065 168.729 826.327 168.428 827.768 168.428ZM827.795 171.395C826.984 171.395 826.309 171.654 825.771 172.174C825.243 172.693 824.938 173.509 824.855 174.621H830.707C830.698 174.001 830.584 173.45 830.365 172.967C830.156 172.484 829.837 172.101 829.408 171.818C828.989 171.536 828.451 171.395 827.795 171.395ZM846.689 168.428C848.321 168.428 849.633 168.874 850.627 169.768C851.62 170.652 852.117 172.074 852.117 174.033V184H847.947V175.072C847.947 173.979 847.747 173.154 847.346 172.598C846.954 172.042 846.334 171.764 845.486 171.764C844.21 171.764 843.34 172.197 842.875 173.062C842.41 173.928 842.178 175.177 842.178 176.809V184H838.008V168.715H841.193L841.754 170.67H841.986C842.314 170.141 842.72 169.713 843.203 169.385C843.695 169.057 844.238 168.815 844.83 168.66C845.432 168.505 846.051 168.428 846.689 168.428ZM869.986 168.428C871.399 168.428 872.616 168.701 873.637 169.248C874.658 169.786 875.446 170.57 876.002 171.6C876.558 172.63 876.836 173.887 876.836 175.373V177.396H866.979C867.024 178.572 867.375 179.497 868.031 180.172C868.697 180.837 869.617 181.17 870.793 181.17C871.768 181.17 872.661 181.07 873.473 180.869C874.284 180.669 875.118 180.368 875.975 179.967V183.193C875.218 183.567 874.425 183.84 873.596 184.014C872.775 184.187 871.777 184.273 870.602 184.273C869.07 184.273 867.712 183.991 866.527 183.426C865.352 182.861 864.426 181.999 863.752 180.842C863.087 179.684 862.754 178.226 862.754 176.467C862.754 174.68 863.055 173.195 863.656 172.01C864.267 170.816 865.115 169.923 866.199 169.33C867.284 168.729 868.546 168.428 869.986 168.428ZM870.014 171.395C869.202 171.395 868.528 171.654 867.99 172.174C867.462 172.693 867.156 173.509 867.074 174.621H872.926C872.917 174.001 872.803 173.45 872.584 172.967C872.374 172.484 872.055 172.101 871.627 171.818C871.208 171.536 870.67 171.395 870.014 171.395ZM884.396 184H880.227V162.727H884.396V184ZM914.01 168.428C915.742 168.428 917.049 168.874 917.934 169.768C918.827 170.652 919.273 172.074 919.273 174.033V184H915.09V175.072C915.09 173.979 914.903 173.154 914.529 172.598C914.156 172.042 913.577 171.764 912.793 171.764C911.69 171.764 910.906 172.16 910.441 172.953C909.977 173.737 909.744 174.863 909.744 176.33V184H905.574V175.072C905.574 174.343 905.492 173.732 905.328 173.24C905.164 172.748 904.913 172.379 904.576 172.133C904.239 171.887 903.806 171.764 903.277 171.764C902.503 171.764 901.892 171.96 901.445 172.352C901.008 172.734 900.693 173.304 900.502 174.061C900.32 174.808 900.229 175.724 900.229 176.809V184H896.059V168.715H899.244L899.805 170.67H900.037C900.347 170.141 900.734 169.713 901.199 169.385C901.673 169.057 902.193 168.815 902.758 168.66C903.323 168.505 903.897 168.428 904.48 168.428C905.602 168.428 906.549 168.61 907.324 168.975C908.108 169.339 908.71 169.904 909.129 170.67H909.498C909.954 169.886 910.596 169.316 911.426 168.961C912.264 168.605 913.126 168.428 914.01 168.428ZM937.457 176.33C937.457 177.606 937.284 178.736 936.938 179.721C936.6 180.705 936.104 181.539 935.447 182.223C934.8 182.897 934.016 183.408 933.096 183.754C932.184 184.1 931.154 184.273 930.006 184.273C928.93 184.273 927.941 184.1 927.039 183.754C926.146 183.408 925.367 182.897 924.701 182.223C924.045 181.539 923.535 180.705 923.17 179.721C922.814 178.736 922.637 177.606 922.637 176.33C922.637 174.635 922.938 173.199 923.539 172.023C924.141 170.848 924.997 169.954 926.109 169.344C927.221 168.733 928.548 168.428 930.088 168.428C931.519 168.428 932.786 168.733 933.889 169.344C935.001 169.954 935.871 170.848 936.5 172.023C937.138 173.199 937.457 174.635 937.457 176.33ZM926.889 176.33C926.889 177.333 926.998 178.176 927.217 178.859C927.436 179.543 927.777 180.058 928.242 180.404C928.707 180.751 929.313 180.924 930.061 180.924C930.799 180.924 931.396 180.751 931.852 180.404C932.316 180.058 932.654 179.543 932.863 178.859C933.082 178.176 933.191 177.333 933.191 176.33C933.191 175.318 933.082 174.48 932.863 173.814C932.654 173.14 932.316 172.634 931.852 172.297C931.387 171.96 930.781 171.791 930.033 171.791C928.93 171.791 928.128 172.169 927.627 172.926C927.135 173.682 926.889 174.817 926.889 176.33ZM958.854 168.428C960.585 168.428 961.893 168.874 962.777 169.768C963.671 170.652 964.117 172.074 964.117 174.033V184H959.934V175.072C959.934 173.979 959.747 173.154 959.373 172.598C958.999 172.042 958.421 171.764 957.637 171.764C956.534 171.764 955.75 172.16 955.285 172.953C954.82 173.737 954.588 174.863 954.588 176.33V184H950.418V175.072C950.418 174.343 950.336 173.732 950.172 173.24C950.008 172.748 949.757 172.379 949.42 172.133C949.083 171.887 948.65 171.764 948.121 171.764C947.346 171.764 946.736 171.96 946.289 172.352C945.852 172.734 945.537 173.304 945.346 174.061C945.163 174.808 945.072 175.724 945.072 176.809V184H940.902V168.715H944.088L944.648 170.67H944.881C945.191 170.141 945.578 169.713 946.043 169.385C946.517 169.057 947.036 168.815 947.602 168.66C948.167 168.505 948.741 168.428 949.324 168.428C950.445 168.428 951.393 168.61 952.168 168.975C952.952 169.339 953.553 169.904 953.973 170.67H954.342C954.798 169.886 955.44 169.316 956.27 168.961C957.108 168.605 957.969 168.428 958.854 168.428ZM974.713 168.428C976.126 168.428 977.342 168.701 978.363 169.248C979.384 169.786 980.173 170.57 980.729 171.6C981.285 172.63 981.562 173.887 981.562 175.373V177.396H971.705C971.751 178.572 972.102 179.497 972.758 180.172C973.423 180.837 974.344 181.17 975.52 181.17C976.495 181.17 977.388 181.07 978.199 180.869C979.01 180.669 979.844 180.368 980.701 179.967V183.193C979.945 183.567 979.152 183.84 978.322 184.014C977.502 184.187 976.504 184.273 975.328 184.273C973.797 184.273 972.439 183.991 971.254 183.426C970.078 182.861 969.153 181.999 968.479 180.842C967.813 179.684 967.48 178.226 967.48 176.467C967.48 174.68 967.781 173.195 968.383 172.01C968.993 170.816 969.841 169.923 970.926 169.33C972.01 168.729 973.273 168.428 974.713 168.428ZM974.74 171.395C973.929 171.395 973.255 171.654 972.717 172.174C972.188 172.693 971.883 173.509 971.801 174.621H977.652C977.643 174.001 977.529 173.45 977.311 172.967C977.101 172.484 976.782 172.101 976.354 171.818C975.934 171.536 975.396 171.395 974.74 171.395ZM993.635 168.428C995.266 168.428 996.579 168.874 997.572 169.768C998.566 170.652 999.062 172.074 999.062 174.033V184H994.893V175.072C994.893 173.979 994.692 173.154 994.291 172.598C993.899 172.042 993.279 171.764 992.432 171.764C991.156 171.764 990.285 172.197 989.82 173.062C989.355 173.928 989.123 175.177 989.123 176.809V184H984.953V168.715H988.139L988.699 170.67H988.932C989.26 170.141 989.665 169.713 990.148 169.385C990.641 169.057 991.183 168.815 991.775 168.66C992.377 168.505 992.997 168.428 993.635 168.428ZM1009.79 180.951C1010.25 180.951 1010.69 180.906 1011.12 180.814C1011.56 180.723 1011.99 180.609 1012.42 180.473V183.576C1011.97 183.777 1011.42 183.941 1010.75 184.068C1010.1 184.205 1009.38 184.273 1008.59 184.273C1007.68 184.273 1006.86 184.128 1006.13 183.836C1005.41 183.535 1004.84 183.02 1004.42 182.291C1004.01 181.553 1003.81 180.527 1003.81 179.215V171.846H1001.81V170.082L1004.11 168.688L1005.31 165.461H1007.98V168.715H1012.26V171.846H1007.98V179.215C1007.98 179.798 1008.14 180.236 1008.47 180.527C1008.81 180.81 1009.25 180.951 1009.79 180.951ZM1029.41 176.33C1029.41 177.606 1029.24 178.736 1028.89 179.721C1028.56 180.705 1028.06 181.539 1027.4 182.223C1026.76 182.897 1025.97 183.408 1025.05 183.754C1024.14 184.1 1023.11 184.273 1021.96 184.273C1020.89 184.273 1019.9 184.1 1019 183.754C1018.1 183.408 1017.32 182.897 1016.66 182.223C1016 181.539 1015.49 180.705 1015.13 179.721C1014.77 178.736 1014.59 177.606 1014.59 176.33C1014.59 174.635 1014.89 173.199 1015.5 172.023C1016.1 170.848 1016.95 169.954 1018.07 169.344C1019.18 168.733 1020.5 168.428 1022.04 168.428C1023.48 168.428 1024.74 168.733 1025.85 169.344C1026.96 169.954 1027.83 170.848 1028.46 172.023C1029.1 173.199 1029.41 174.635 1029.41 176.33ZM1018.85 176.33C1018.85 177.333 1018.96 178.176 1019.17 178.859C1019.39 179.543 1019.73 180.058 1020.2 180.404C1020.66 180.751 1021.27 180.924 1022.02 180.924C1022.76 180.924 1023.35 180.751 1023.81 180.404C1024.27 180.058 1024.61 179.543 1024.82 178.859C1025.04 178.176 1025.15 177.333 1025.15 176.33C1025.15 175.318 1025.04 174.48 1024.82 173.814C1024.61 173.14 1024.27 172.634 1023.81 172.297C1023.34 171.96 1022.74 171.791 1021.99 171.791C1020.89 171.791 1020.09 172.169 1019.58 172.926C1019.09 173.682 1018.85 174.817 1018.85 176.33ZM1038.9 190.727C1038.43 190.727 1037.94 190.69 1037.43 190.617C1036.92 190.553 1036.49 190.476 1036.15 190.385V187.104C1036.49 187.195 1036.81 187.258 1037.11 187.295C1037.4 187.34 1037.74 187.363 1038.11 187.363C1038.67 187.363 1039.15 187.204 1039.54 186.885C1039.94 186.575 1040.13 185.96 1040.13 185.039V168.715H1044.3V185.654C1044.3 186.584 1044.12 187.432 1043.77 188.197C1043.41 188.972 1042.84 189.587 1042.05 190.043C1041.25 190.499 1040.21 190.727 1038.9 190.727ZM1039.96 164.764C1039.96 163.98 1040.17 163.447 1040.61 163.164C1041.06 162.872 1041.6 162.727 1042.22 162.727C1042.84 162.727 1043.38 162.872 1043.82 163.164C1044.27 163.447 1044.49 163.98 1044.49 164.764C1044.49 165.538 1044.27 166.076 1043.82 166.377C1043.38 166.669 1042.84 166.814 1042.22 166.814C1041.6 166.814 1041.06 166.669 1040.61 166.377C1040.17 166.076 1039.96 165.538 1039.96 164.764ZM1062.72 168.715V184H1059.52L1058.96 182.045H1058.74C1058.41 182.564 1058 182.988 1057.51 183.316C1057.02 183.645 1056.48 183.886 1055.88 184.041C1055.29 184.196 1054.68 184.273 1054.04 184.273C1052.94 184.273 1051.99 184.082 1051.18 183.699C1050.37 183.307 1049.74 182.701 1049.28 181.881C1048.83 181.061 1048.61 179.994 1048.61 178.682V168.715H1052.78V177.643C1052.78 178.736 1052.98 179.561 1053.37 180.117C1053.76 180.673 1054.38 180.951 1055.24 180.951C1056.09 180.951 1056.75 180.76 1057.24 180.377C1057.72 179.985 1058.06 179.415 1058.25 178.668C1058.45 177.911 1058.55 176.991 1058.55 175.906V168.715H1062.72ZM1077.76 179.461C1077.76 180.5 1077.51 181.38 1077.02 182.1C1076.54 182.811 1075.81 183.353 1074.85 183.727C1073.88 184.091 1072.68 184.273 1071.24 184.273C1070.17 184.273 1069.25 184.205 1068.49 184.068C1067.73 183.932 1066.97 183.704 1066.19 183.385V179.939C1067.02 180.313 1067.91 180.623 1068.86 180.869C1069.81 181.106 1070.65 181.225 1071.37 181.225C1072.18 181.225 1072.76 181.106 1073.11 180.869C1073.46 180.623 1073.64 180.304 1073.64 179.912C1073.64 179.657 1073.57 179.429 1073.42 179.229C1073.29 179.019 1072.99 178.786 1072.52 178.531C1072.06 178.267 1071.33 177.925 1070.33 177.506C1069.38 177.105 1068.59 176.699 1067.97 176.289C1067.36 175.879 1066.9 175.396 1066.6 174.84C1066.31 174.275 1066.16 173.559 1066.16 172.693C1066.16 171.281 1066.71 170.219 1067.8 169.508C1068.91 168.788 1070.38 168.428 1072.22 168.428C1073.17 168.428 1074.07 168.523 1074.93 168.715C1075.79 168.906 1076.68 169.212 1077.59 169.631L1076.34 172.639C1075.58 172.311 1074.86 172.042 1074.19 171.832C1073.52 171.622 1072.85 171.518 1072.15 171.518C1071.54 171.518 1071.08 171.6 1070.77 171.764C1070.46 171.928 1070.31 172.178 1070.31 172.516C1070.31 172.762 1070.38 172.98 1070.54 173.172C1070.7 173.363 1071.01 173.577 1071.47 173.814C1071.93 174.042 1072.61 174.339 1073.51 174.703C1074.37 175.059 1075.12 175.432 1075.76 175.824C1076.4 176.207 1076.89 176.686 1077.24 177.26C1077.58 177.825 1077.76 178.559 1077.76 179.461ZM1087.45 180.951C1087.91 180.951 1088.35 180.906 1088.78 180.814C1089.21 180.723 1089.65 180.609 1090.08 180.473V183.576C1089.63 183.777 1089.07 183.941 1088.41 184.068C1087.75 184.205 1087.03 184.273 1086.25 184.273C1085.34 184.273 1084.52 184.128 1083.79 183.836C1083.07 183.535 1082.5 183.02 1082.08 182.291C1081.67 181.553 1081.46 180.527 1081.46 179.215V171.846H1079.47V170.082L1081.76 168.688L1082.97 165.461H1085.63V168.715H1089.91V171.846H1085.63V179.215C1085.63 179.798 1085.8 180.236 1086.12 180.527C1086.46 180.81 1086.9 180.951 1087.45 180.951ZM1107.07 176.33C1107.07 177.606 1106.9 178.736 1106.55 179.721C1106.21 180.705 1105.72 181.539 1105.06 182.223C1104.41 182.897 1103.63 183.408 1102.71 183.754C1101.8 184.1 1100.77 184.273 1099.62 184.273C1098.54 184.273 1097.55 184.1 1096.65 183.754C1095.76 183.408 1094.98 182.897 1094.31 182.223C1093.66 181.539 1093.15 180.705 1092.78 179.721C1092.43 178.736 1092.25 177.606 1092.25 176.33C1092.25 174.635 1092.55 173.199 1093.15 172.023C1093.75 170.848 1094.61 169.954 1095.72 169.344C1096.83 168.733 1098.16 168.428 1099.7 168.428C1101.13 168.428 1102.4 168.733 1103.5 169.344C1104.61 169.954 1105.48 170.848 1106.11 172.023C1106.75 173.199 1107.07 174.635 1107.07 176.33ZM1096.5 176.33C1096.5 177.333 1096.61 178.176 1096.83 178.859C1097.05 179.543 1097.39 180.058 1097.86 180.404C1098.32 180.751 1098.93 180.924 1099.67 180.924C1100.41 180.924 1101.01 180.751 1101.46 180.404C1101.93 180.058 1102.27 179.543 1102.48 178.859C1102.7 178.176 1102.8 177.333 1102.8 176.33C1102.8 175.318 1102.7 174.48 1102.48 173.814C1102.27 173.14 1101.93 172.634 1101.46 172.297C1101 171.96 1100.39 171.791 1099.65 171.791C1098.54 171.791 1097.74 172.169 1097.24 172.926C1096.75 173.682 1096.5 174.817 1096.5 176.33Z" fill="#0B2641"/>
</svg>
